<svg width="62" height="48" viewBox="0 0 62 48" fill="none" xmlns="http://www.w3.org/2000/svg">
<path d="M57.796 0H3.91844C1.75451 0 0 1.7544 0 3.91833V44.0818C0 46.2456 1.75451 48 3.91844 48H57.796C59.96 48 61.7145 46.2456 61.7145 44.0817V3.91833C61.7145 1.7544 59.9601 0 57.796 0ZM57.796 3.91833V32.4156L50.0738 25.3949C48.9132 24.3399 47.1283 24.382 46.0194 25.4919L38.204 33.3061L22.7942 14.8995C21.6294 13.5085 19.4958 13.4948 18.3135 14.8692L3.91844 31.5987V3.91833H57.796ZM41.1431 14.2041C41.1431 11.228 43.5546 8.81627 46.5306 8.81627C49.5068 8.81627 51.9184 11.228 51.9184 14.2041C51.9184 17.1801 49.5069 19.5918 46.5306 19.5918C43.5547 19.5919 41.1431 17.1801 41.1431 14.2041Z" fill="black"/>
<path d="M12.1877 31.504H13.3397V38.92H17.2397V40H12.1877V31.504Z" fill="white"/>
<path d="M19.0104 37.156C19.0104 37.444 19.0544 37.712 19.1424 37.96C19.2304 38.2 19.3544 38.408 19.5144 38.584C19.6744 38.752 19.8704 38.888 20.1024 38.992C20.3344 39.088 20.5944 39.136 20.8824 39.136C21.1704 39.136 21.4304 39.088 21.6624 38.992C21.8944 38.888 22.0904 38.752 22.2504 38.584C22.4104 38.408 22.5344 38.2 22.6224 37.96C22.7104 37.712 22.7544 37.444 22.7544 37.156C22.7544 36.868 22.7104 36.604 22.6224 36.364C22.5344 36.116 22.4104 35.908 22.2504 35.74C22.0904 35.564 21.8944 35.428 21.6624 35.332C21.4304 35.228 21.1704 35.176 20.8824 35.176C20.5944 35.176 20.3344 35.228 20.1024 35.332C19.8704 35.428 19.6744 35.564 19.5144 35.74C19.3544 35.908 19.2304 36.116 19.1424 36.364C19.0544 36.604 19.0104 36.868 19.0104 37.156ZM17.8584 37.156C17.8584 36.74 17.9344 36.352 18.0864 35.992C18.2464 35.632 18.4624 35.316 18.7344 35.044C19.0064 34.772 19.3264 34.56 19.6944 34.408C20.0624 34.248 20.4584 34.168 20.8824 34.168C21.3064 34.168 21.7024 34.248 22.0704 34.408C22.4384 34.56 22.7584 34.772 23.0304 35.044C23.3024 35.316 23.5144 35.632 23.6664 35.992C23.8264 36.352 23.9064 36.74 23.9064 37.156C23.9064 37.572 23.8264 37.964 23.6664 38.332C23.5144 38.692 23.3024 39.008 23.0304 39.28C22.7584 39.544 22.4384 39.756 22.0704 39.916C21.7024 40.068 21.3064 40.144 20.8824 40.144C20.4584 40.144 20.0624 40.068 19.6944 39.916C19.3264 39.756 19.0064 39.544 18.7344 39.28C18.4624 39.008 18.2464 38.692 18.0864 38.332C17.9344 37.964 17.8584 37.572 17.8584 37.156Z" fill="white"/>
<path d="M30.9594 39.952C30.9594 40.384 30.8834 40.776 30.7314 41.128C30.5874 41.488 30.3794 41.796 30.1074 42.052C29.8354 42.316 29.5074 42.52 29.1234 42.664C28.7394 42.808 28.3154 42.88 27.8514 42.88C27.3074 42.88 26.8074 42.804 26.3514 42.652C25.9034 42.5 25.4754 42.236 25.0674 41.86L25.7994 40.948C26.0794 41.252 26.3834 41.48 26.7114 41.632C27.0394 41.792 27.4114 41.872 27.8274 41.872C28.2274 41.872 28.5594 41.812 28.8234 41.692C29.0874 41.58 29.2954 41.432 29.4474 41.248C29.6074 41.064 29.7194 40.852 29.7834 40.612C29.8474 40.38 29.8794 40.144 29.8794 39.904V39.064H29.8434C29.6354 39.408 29.3514 39.664 28.9914 39.832C28.6394 39.992 28.2674 40.072 27.8754 40.072C27.4594 40.072 27.0714 40 26.7114 39.856C26.3594 39.704 26.0554 39.5 25.7994 39.244C25.5434 38.98 25.3434 38.672 25.1994 38.32C25.0554 37.96 24.9834 37.572 24.9834 37.156C24.9834 36.74 25.0514 36.352 25.1874 35.992C25.3234 35.624 25.5154 35.304 25.7634 35.032C26.0194 34.76 26.3234 34.548 26.6754 34.396C27.0354 34.244 27.4354 34.168 27.8754 34.168C28.2594 34.168 28.6314 34.252 28.9914 34.42C29.3594 34.588 29.6474 34.824 29.8554 35.128H29.8794V34.312H30.9594V39.952ZM28.0074 35.176C27.7194 35.176 27.4594 35.228 27.2274 35.332C26.9954 35.428 26.7994 35.564 26.6394 35.74C26.4794 35.908 26.3554 36.116 26.2674 36.364C26.1794 36.604 26.1354 36.868 26.1354 37.156C26.1354 37.732 26.3034 38.196 26.6394 38.548C26.9754 38.892 27.4314 39.064 28.0074 39.064C28.5834 39.064 29.0394 38.892 29.3754 38.548C29.7114 38.196 29.8794 37.732 29.8794 37.156C29.8794 36.868 29.8354 36.604 29.7474 36.364C29.6594 36.116 29.5354 35.908 29.3754 35.74C29.2154 35.564 29.0194 35.428 28.7874 35.332C28.5554 35.228 28.2954 35.176 28.0074 35.176Z" fill="white"/>
<path d="M33.4713 37.156C33.4713 37.444 33.5153 37.712 33.6033 37.96C33.6913 38.2 33.8153 38.408 33.9753 38.584C34.1353 38.752 34.3313 38.888 34.5633 38.992C34.7953 39.088 35.0553 39.136 35.3433 39.136C35.6313 39.136 35.8913 39.088 36.1233 38.992C36.3553 38.888 36.5513 38.752 36.7113 38.584C36.8713 38.408 36.9953 38.2 37.0833 37.96C37.1713 37.712 37.2153 37.444 37.2153 37.156C37.2153 36.868 37.1713 36.604 37.0833 36.364C36.9953 36.116 36.8713 35.908 36.7113 35.74C36.5513 35.564 36.3553 35.428 36.1233 35.332C35.8913 35.228 35.6313 35.176 35.3433 35.176C35.0553 35.176 34.7953 35.228 34.5633 35.332C34.3313 35.428 34.1353 35.564 33.9753 35.74C33.8153 35.908 33.6913 36.116 33.6033 36.364C33.5153 36.604 33.4713 36.868 33.4713 37.156ZM32.3193 37.156C32.3193 36.74 32.3953 36.352 32.5473 35.992C32.7073 35.632 32.9233 35.316 33.1953 35.044C33.4673 34.772 33.7873 34.56 34.1553 34.408C34.5233 34.248 34.9193 34.168 35.3433 34.168C35.7673 34.168 36.1633 34.248 36.5313 34.408C36.8993 34.56 37.2193 34.772 37.4913 35.044C37.7633 35.316 37.9753 35.632 38.1273 35.992C38.2873 36.352 38.3673 36.74 38.3673 37.156C38.3673 37.572 38.2873 37.964 38.1273 38.332C37.9753 38.692 37.7633 39.008 37.4913 39.28C37.2193 39.544 36.8993 39.756 36.5313 39.916C36.1633 40.068 35.7673 40.144 35.3433 40.144C34.9193 40.144 34.5233 40.068 34.1553 39.916C33.7873 39.756 33.4673 39.544 33.1953 39.28C32.9233 39.008 32.7073 38.692 32.5473 38.332C32.3953 37.964 32.3193 37.572 32.3193 37.156Z" fill="white"/>
</svg>
